<?xml version="1.0" encoding="UTF-8"?>
<svg version="1.1" xmlns="http://www.w3.org/2000/svg" width="1016" height="1016">
<path d="M0 0 C335.28 0 670.56 0 1016 0 C1016 335.28 1016 670.56 1016 1016 C680.72 1016 345.44 1016 0 1016 C0 680.72 0 345.44 0 0 Z " fill="#101214" transform="translate(0,0)"/>
<path d="M0 0 C2.27818415 -0.00218869 4.5558858 -0.0203553 6.83398438 -0.03930664 C8.27669105 -0.04224019 9.71940003 -0.04422524 11.16210938 -0.04516602 C13.13824219 -0.05132935 13.13824219 -0.05132935 15.15429688 -0.05761719 C18.28710938 0.18530273 18.28710938 0.18530273 20.28710938 2.18530273 C20.48090712 5.28155016 20.54739311 8.28810333 20.52761841 11.38528442 C20.52932726 12.35071163 20.53103611 13.31613884 20.53279674 14.31082141 C20.53610743 17.56609364 20.52506201 20.82116258 20.51416016 24.07641602 C20.51359638 26.40180456 20.51391194 28.72719345 20.51504517 31.05258179 C20.515621 37.3828709 20.5038294 43.71308484 20.48989725 50.04335642 C20.47869047 55.98341566 20.47665309 61.92347189 20.47459351 67.86354028 C20.47021331 79.63112768 20.45689542 91.3986874 20.43798828 103.16625977 C20.41963787 114.59920106 20.40547727 126.03213485 20.39697266 137.46508789 C20.39644721 138.1694934 20.39592176 138.87389891 20.39538039 139.59965004 C20.39277037 143.13334954 20.39024294 146.66704909 20.38775659 150.20074868 C20.36701398 179.52895122 20.33163124 208.85712668 20.28710938 238.18530273 C21.43050781 238.17370117 22.57390625 238.16209961 23.75195312 238.15014648 C25.24283692 238.14076986 26.73372246 238.13166952 28.22460938 238.12280273 C28.97935547 238.11442383 29.73410156 238.10604492 30.51171875 238.09741211 C32.43705251 238.08877833 34.36246518 238.13305941 36.28710938 238.18530273 C38.02003917 239.91823253 37.41530984 242.14744609 37.42605591 244.45678711 C37.42301956 245.55990234 37.42301956 245.55990234 37.41992188 246.68530273 C37.4208786 247.43618164 37.42183533 248.18706055 37.42282104 248.96069336 C37.42350276 250.551189 37.42164909 252.14168741 37.41748047 253.73217773 C37.41213204 256.17494928 37.41742571 258.61753695 37.42382812 261.06030273 C37.42316734 262.60196981 37.42188618 264.14363677 37.41992188 265.68530273 C37.42194611 266.42071289 37.42397034 267.15612305 37.42605591 267.91381836 C37.40206098 273.07035113 37.40206098 273.07035113 36.28710938 274.18530273 C34.76873165 274.29408415 33.24536593 274.33433871 31.72314453 274.34643555 C30.75188629 274.35604309 29.78062805 274.36565063 28.77993774 274.37554932 C27.72269501 274.37979919 26.66545227 274.38404907 25.57617188 274.38842773 C24.49709564 274.39412781 23.41801941 274.39982788 22.3062439 274.40570068 C20.01797471 274.41516736 17.72969179 274.42169125 15.44140625 274.42553711 C11.9340036 274.43524215 8.4271868 274.46625017 4.91992188 274.49780273 C2.70117537 274.50433241 0.48242466 274.50958302 -1.73632812 274.51342773 C-2.7895224 274.52577454 -3.84271667 274.53812134 -4.92782593 274.55084229 C-5.90538849 274.54784119 -6.88295105 274.54484009 -7.89013672 274.54174805 C-8.75093842 274.54539368 -9.61174011 274.54903931 -10.49862671 274.55279541 C-13.20630043 274.10341345 -14.08443852 273.36051469 -15.71289062 271.18530273 C-16.40073737 267.03542737 -16.23335132 262.82321358 -16.21289062 258.62280273 C-16.21192383 256.81042114 -16.21192383 256.81042114 -16.2109375 254.96142578 C-16.04238447 244.732024 -14.21544387 235.75477858 -10.71289062 226.18530273 C-12.69289063 226.18530273 -14.67289063 226.18530273 -16.71289062 226.18530273 C-16.81730469 227.03866211 -16.92171875 227.89202148 -17.02929688 228.77124023 C-19.93535126 243.28490615 -30.92962853 256.360468 -42.86914062 264.44311523 C-63.77633523 277.2516438 -89.79095976 281.26285874 -113.83789062 275.68530273 C-137.18714138 269.61353421 -154.57788919 254.35907299 -166.63085938 233.93530273 C-175.10671629 218.06879796 -178.90556209 201.33522736 -178.953125 183.45751953 C-178.96272626 181.28499489 -178.9937468 179.11346115 -179.02539062 176.94116211 C-179.20352184 153.30151882 -171.94707415 128.83246149 -155.71289062 111.18530273 C-154.97554687 110.35643555 -154.23820313 109.52756836 -153.47851562 108.67358398 C-139.98010573 94.27086885 -121.81905099 85.46312176 -102.08789062 83.89770508 C-98.45809374 83.78575346 -94.84411887 83.77527481 -91.21289062 83.81030273 C-90.01019531 83.79870117 -88.8075 83.78709961 -87.56835938 83.77514648 C-66.83477984 83.84195716 -46.55405728 90.36673974 -31.58398438 105.04467773 C-25.00314995 111.93195637 -17.14523036 122.41198019 -16.52539062 132.12280273 C-16.58726562 132.80342773 -16.64914062 133.48405273 -16.71289062 134.18530273 C-15.06289063 133.85530273 -13.41289063 133.52530273 -11.71289062 133.18530273 C-12.13921783 131.8111898 -12.13921783 131.8111898 -12.57415771 130.40931702 C-16.45215604 116.79785689 -16.22547866 103.42301853 -16.10351562 89.36889648 C-16.09603936 86.81486966 -16.090353 84.26083702 -16.08636475 81.70680237 C-16.0727578 75.718361 -16.04137505 69.73027902 -16.00096679 63.74198061 C-15.95590351 56.91225481 -15.93417618 50.08251294 -15.91418505 43.25267494 C-15.87262924 29.23005287 -15.8024958 15.20769438 -15.71289062 1.18530273 C-11.2085821 -1.06685153 -5.01432851 -0.00054174 0 0 Z " fill="#0FFCE4" transform="translate(812.712890625,369.814697265625)"/>
<path d="M0 0 C0.70523804 0.00404846 1.41047607 0.00809692 2.13708496 0.01226807 C2.8619812 0.01035461 3.58687744 0.00844116 4.33374023 0.00646973 C5.86698758 0.0051082 7.40024646 0.00880243 8.93347168 0.01715088 C11.28415755 0.02785129 13.63407919 0.01725498 15.98474121 0.00445557 C17.47302415 0.00577717 18.96130662 0.00833957 20.44958496 0.01226807 C21.154823 0.0082196 21.86006104 0.00417114 22.58666992 0 C27.56341011 0.04796821 27.56341011 0.04796821 29.79333496 2.27789307 C30.04387474 4.33776283 30.04387474 4.33776283 30.04489136 6.92843628 C30.0502742 7.90934738 30.05565704 8.89025848 30.061203 9.90089417 C30.05501701 11.52151009 30.05501701 11.52151009 30.04870605 13.17486572 C30.05232651 14.31013199 30.05594696 15.44539825 30.05967712 16.61506653 C30.0665878 19.08957743 30.06907345 21.56410362 30.06772995 24.03862381 C30.0667664 27.96666003 30.07969124 31.89442126 30.09671021 35.82241821 C30.14368662 46.99439725 30.16762815 58.16636658 30.17419434 69.33843994 C30.17837801 76.16844657 30.2036424 82.99816424 30.23952103 89.82807541 C30.24926532 92.42170892 30.25168061 95.01538153 30.24634933 97.60902786 C29.77861127 123.96690559 29.77861127 123.96690559 40.79333496 147.27789307 C50.06570923 156.47033307 62.09593376 158.57191745 74.64147949 158.5947876 C89.71593007 158.35014113 104.50238268 152.40194059 115.41052246 141.94976807 C132.8791271 122.36202123 135.23346768 98.48098762 135.23474121 73.34429932 C135.24654157 71.28829523 135.25991218 69.23229961 135.27476501 67.17631531 C135.31059011 61.82285174 135.33105717 56.46946356 135.34631348 51.11590576 C135.37136837 42.49670287 135.41067099 33.87766586 135.46821404 25.25861931 C135.4845473 22.25495863 135.48831808 19.25145656 135.4912262 16.24775696 C135.50099332 14.42259438 135.51125507 12.59743436 135.52209473 10.77227783 C135.51954178 9.93655746 135.51698883 9.1008371 135.51435852 8.23979187 C135.56583028 2.50539775 135.56583028 2.50539775 137.79333496 0.27789307 C140.29077358 0.09067455 142.67522179 0.0220954 145.17224121 0.04742432 C146.26314308 0.04811165 146.26314308 0.04811165 147.37608337 0.04881287 C148.91353995 0.05183471 150.45099348 0.05971901 151.98840332 0.07208252 C154.34992231 0.09034734 156.71104957 0.09259216 159.07263184 0.09234619 C160.56417171 0.09726103 162.0557089 0.10308921 163.54724121 0.10992432 C164.25764053 0.11103714 164.96803986 0.11214996 165.69996643 0.11329651 C170.67728131 0.16183942 170.67728131 0.16183942 171.79333496 1.27789307 C171.88996469 3.21417607 171.9152064 5.15403569 171.91358948 7.09272766 C171.91565147 8.98797432 171.91565147 8.98797432 171.91775513 10.92150879 C171.91421551 12.334656 171.9105807 13.74780297 171.90686035 15.16094971 C171.90657849 16.63891091 171.9067362 18.11687225 171.90730286 19.59483337 C171.90759086 23.61945135 171.90169366 27.64403978 171.8947289 31.66865087 C171.88849585 35.87005671 171.8878916 40.07146317 171.88670349 44.27287292 C171.88359003 52.23435563 171.87537645 60.19582468 171.865354 68.15730137 C171.85419332 77.21881896 171.84868253 86.28033719 171.84365857 95.34185994 C171.83319384 113.98721207 171.81559412 132.63255147 171.79333496 151.27789307 C172.9367334 151.2662915 174.08013184 151.25468994 175.25817871 151.24273682 C176.7490625 151.23336019 178.23994805 151.22425985 179.73083496 151.21539307 C180.48558105 151.20701416 181.24032715 151.19863525 182.01794434 151.19000244 C183.94327809 151.18136866 185.86869077 151.22564974 187.79333496 151.27789307 C189.49826377 152.98282188 188.92137916 155.12323567 188.93228149 157.39691162 C188.92924515 158.46721619 188.92924515 158.46721619 188.92614746 159.55914307 C188.92710419 160.28782593 188.92806091 161.01650879 188.92904663 161.76727295 C188.92972832 163.31069017 188.92787484 164.85411023 188.92370605 166.39752197 C188.91835758 168.76786706 188.92365138 171.13802266 188.93005371 173.50836182 C188.92939293 175.00445599 188.92811176 176.50055004 188.92614746 177.99664307 C188.92817169 178.71017944 188.93019592 179.42371582 188.93228149 180.15887451 C188.90828687 185.16294115 188.90828687 185.16294115 187.79333496 186.27789307 C186.23882508 186.38156334 184.67965242 186.41640828 183.1217041 186.42315674 C181.62994408 186.43272652 181.62994408 186.43272652 180.10804749 186.44248962 C179.02579391 186.44360245 177.94354034 186.44471527 176.82849121 186.44586182 C175.17302528 186.45085442 175.17302528 186.45085442 173.4841156 186.45594788 C171.14456602 186.46102192 168.80500918 186.46335606 166.4654541 186.4631958 C162.87475731 186.46538155 159.28436792 186.48353041 155.69372559 186.50250244 C153.42614852 186.50543633 151.15856998 186.50742116 148.89099121 186.50836182 C147.81076187 186.51554733 146.73053253 186.52273285 145.61756897 186.53013611 C144.1210807 186.52552116 144.1210807 186.52552116 142.59436035 186.52081299 C141.27317955 186.52295052 141.27317955 186.52295052 139.92530823 186.52513123 C137.79333496 186.27789307 137.79333496 186.27789307 135.79333496 184.27789307 C135.26338587 179.3259305 135.35805344 174.31865718 135.35583496 169.34039307 C135.35277344 168.61835693 135.34971191 167.8963208 135.34655762 167.15240479 C135.33328129 155.23822879 136.7250607 144.55282458 140.79333496 133.27789307 C139.14333496 133.27789307 137.49333496 133.27789307 135.79333496 133.27789307 C135.59030762 134.33363525 135.59030762 134.33363525 135.38317871 135.41070557 C132.67508087 147.83228011 127.22151339 158.76035824 118.79333496 168.27789307 C118.04890137 169.17894775 118.04890137 169.17894775 117.28942871 170.09820557 C109.59151562 178.70289037 97.69371878 184.08676621 86.79333496 187.27789307 C85.08790527 187.81156494 85.08790527 187.81156494 83.34802246 188.35601807 C61.19502437 193.75272733 36.98050361 188.90785142 17.79333496 177.27789307 C2.69248243 167.08481761 -2.9792314 150.05319153 -6.56049156 133.05321503 C-7.53376953 127.36675803 -7.61778111 121.81889785 -7.57897949 116.06207275 C-7.58263016 114.82453751 -7.58628082 113.58700226 -7.59004211 112.31196594 C-7.59668707 108.96751648 -7.59014771 105.62363845 -7.57670999 102.27924633 C-7.56527475 98.76351649 -7.56951144 95.2477988 -7.57145691 91.73205566 C-7.57233472 85.84510475 -7.56135619 79.95827015 -7.54284668 74.0713501 C-7.5215685 67.26482828 -7.51819715 60.45847514 -7.52440864 53.65192676 C-7.53009452 47.08446956 -7.52447344 40.51707173 -7.51323509 33.94962311 C-7.5085908 31.16017815 -7.50771434 28.3707695 -7.50982094 25.58132172 C-7.51204759 21.70114304 -7.49762496 17.82112627 -7.48132324 13.940979 C-7.48380066 12.78262039 -7.48627808 11.62426178 -7.48883057 10.43080139 C-7.48174576 9.37968674 -7.47466095 8.32857208 -7.46736145 7.24560547 C-7.46530858 6.32909084 -7.46325571 5.41257622 -7.46114063 4.46828842 C-6.91947612 -0.19408182 -4.02154134 0.03876155 0 0 Z " fill="#0FFCE4" transform="translate(429.2066650390625,456.72210693359375)"/>
<path d="M0 0 C13.2599169 9.37445288 20.64109419 20.08368958 24.51953125 35.78125 C24.78443359 36.80569214 24.78443359 36.80569214 25.0546875 37.85083008 C29.60166412 56.4670455 26.54006821 76.97584127 17.4296875 93.7265625 C8.571389 107.89259405 -4.57817828 114.83311134 -20.1484375 119.59765625 C-38.51606546 123.77344448 -59.17501977 121.39120591 -75.4453125 111.875 C-88.55619582 102.83068409 -95.51529256 90.98073648 -98.97265625 75.59765625 C-102.86747217 53.99640797 -101.84062467 31.51041628 -89.48046875 12.78125 C-69.37527851 -13.50838849 -27.35482665 -16.47172357 0 0 Z " fill="#101214" transform="translate(771.48046875,494.21875)"/>
<path d="M0 0 C5.10863896 -0.0246501 10.21724359 -0.04283607 15.32592773 -0.05493164 C17.06519168 -0.05997204 18.80445136 -0.0668043 20.54370117 -0.07543945 C23.03825937 -0.08751792 25.53276173 -0.09323108 28.02734375 -0.09765625 C28.80963852 -0.10281754 29.59193329 -0.10797882 30.39793396 -0.11329651 C32.26567114 -0.11349226 34.13329204 -0.06199694 36 0 C37.88324102 1.88324102 37.12781709 5.13514996 37.12939453 7.63891602 C37.13111286 8.33629128 37.13283119 9.03366653 37.13460159 9.75217438 C37.13895498 12.08610801 37.13597116 14.41997155 37.1328125 16.75390625 C37.13399558 18.39407885 37.13551725 20.03425123 37.13735962 21.67442322 C37.14112181 26.97046554 37.13353403 32.26646551 37.125 37.5625 C37.1227335 39.36230465 37.12049549 41.16210934 37.11828613 42.96191406 C37.10170353 54.97472493 37.0602556 66.98733243 37 79 C36.9937561 80.3057196 36.98751221 81.61143921 36.9810791 82.95672607 C36.9486188 88.99031107 36.89648987 95.02261991 36.79046631 101.0553894 C36.76372068 102.67112 36.74330341 104.2869691 36.72955322 105.90286255 C36.70879963 108.07155559 36.66335192 110.23816604 36.609375 112.40625 C36.58842773 113.55416016 36.56748047 114.70207031 36.54589844 115.88476562 C35.87241825 119.72806046 34.39122261 121.95010728 32 125 C29.78125 126.4609375 29.78125 126.4609375 27.5 127.375 C26.7471875 127.69210937 25.994375 128.00921875 25.21875 128.3359375 C23 129 23 129 19 129 C19 130.65 19 132.3 19 134 C19.99580078 134.14695312 19.99580078 134.14695312 21.01171875 134.296875 C26.32573102 135.19676613 30.1683653 135.92888813 34 140 C36.38242975 143.61289437 36.34276427 147.25678069 36.40966797 151.44970703 C36.42874332 152.1952824 36.44781868 152.94085777 36.46747208 153.70902634 C36.52747256 156.18350797 36.57282389 158.65800446 36.6171875 161.1328125 C36.65478935 162.88307353 36.69270813 164.63332777 36.73092651 166.38357544 C37.09637277 184.13402122 37.15381224 201.88602767 37.13037109 219.63964844 C37.12450319 224.10564568 37.12808463 228.57158505 37.13394356 233.03758049 C37.13753288 236.52550712 37.13642109 240.01341957 37.13381577 243.50134659 C37.13315057 245.15284355 37.13396063 246.80434181 37.13629532 248.45583725 C37.13881264 250.72173361 37.13500241 252.98752922 37.12939453 255.25341797 C37.12859894 256.53699188 37.12780334 257.8205658 37.12698364 259.14303589 C37 262 37 262 36 263 C33.42980515 263.11332093 30.88748523 263.16417485 28.31640625 263.16796875 C27.54570297 263.17129715 26.77499969 263.17462555 25.98094177 263.17805481 C24.34757079 263.1831271 22.7141894 263.18546304 21.08081055 263.18530273 C18.57648701 263.1874878 16.07260479 263.20563595 13.56835938 263.22460938 C11.98437651 263.22754347 10.40039155 263.22952816 8.81640625 263.23046875 C8.0642836 263.23765427 7.31216095 263.24483978 6.5372467 263.25224304 C1.22882279 263.22882279 1.22882279 263.22882279 -1 261 C-1.25053978 259.15928173 -1.25053978 259.15928173 -1.2515564 256.88285828 C-1.25693924 256.02067688 -1.26232208 255.15849548 -1.26786804 254.27018738 C-1.26374405 253.32210709 -1.25962006 252.37402679 -1.25537109 251.3972168 C-1.25899155 250.40033844 -1.262612 249.40346008 -1.26634216 248.37637329 C-1.27324862 246.20632024 -1.27573927 244.03624977 -1.27439499 241.86618614 C-1.27343285 238.43262788 -1.28633529 234.99938538 -1.30337524 231.56587219 C-1.34974104 221.80183376 -1.37425545 212.03782628 -1.38085938 202.27368164 C-1.38586964 196.3060601 -1.41009792 190.33876645 -1.44618607 184.37125587 C-1.45599797 182.09509053 -1.45830848 179.81888015 -1.45301437 177.54269981 C-1.44595687 174.35843179 -1.46320064 171.17514233 -1.48583984 167.9909668 C-1.47766739 167.0489592 -1.46949493 166.1069516 -1.46107483 165.13639832 C-1.51291784 161.04144001 -1.65236964 158.60634659 -3.71963501 155.00056458 C-8.43522511 150.86357661 -12.91724021 150.70186809 -18.98730469 150.69702148 C-19.77646774 150.68858215 -20.5656308 150.68014282 -21.37870789 150.67144775 C-23.97643661 150.64574142 -26.57405198 150.63354917 -29.171875 150.62109375 C-30.97838234 150.60491651 -32.78488095 150.58773628 -34.59136963 150.56959534 C-39.33872456 150.52396595 -44.08609112 150.48912372 -48.83355713 150.45739746 C-56.44682476 150.40545587 -64.0599649 150.34054342 -71.67307281 150.26918221 C-74.33711093 150.24628511 -77.00113257 150.23005946 -79.66522217 150.21446228 C-81.28690781 150.20106271 -82.9085917 150.18744853 -84.53027344 150.17358398 C-85.27623276 150.17097061 -86.02219208 150.16835724 -86.79075623 150.16566467 C-91.88635878 150.11364122 -91.88635878 150.11364122 -93 149 C-93.1007812 146.63601532 -93.13973215 144.30188689 -93.1328125 141.9375 C-93.13376923 141.23101318 -93.13472595 140.52452637 -93.13571167 139.79663086 C-93.13639333 138.30029207 -93.13454005 136.80395033 -93.13037109 135.30761719 C-93.12502257 133.00969843 -93.13031651 130.71197514 -93.13671875 128.4140625 C-93.13605797 126.96354123 -93.1347768 125.51302009 -93.1328125 124.0625 C-93.13483673 123.3708374 -93.13686096 122.6791748 -93.13894653 121.96655273 C-93.11495224 117.11495224 -93.11495224 117.11495224 -92 116 C-89.44558406 115.90150963 -86.9174431 115.86699324 -84.36254883 115.87402344 C-83.5624942 115.8721553 -82.76243958 115.87028717 -81.93814087 115.86836243 C-80.19423051 115.86434831 -78.45031486 115.86228267 -76.70639992 115.86190033 C-72.9991242 115.85849515 -69.29202551 115.83714216 -65.58481121 115.81666946 C-58.67622843 115.7786047 -51.76783033 115.74738221 -44.85913086 115.74951172 C-40.05962811 115.75029923 -35.26076678 115.72691362 -30.4614315 115.6876297 C-28.6326759 115.67716953 -26.80384625 115.67564581 -24.97507668 115.68328094 C-22.41082228 115.69291501 -19.84850358 115.67169753 -17.28442383 115.64355469 C-16.15497093 115.65884972 -16.15497093 115.65884972 -15.00270081 115.67445374 C-9.24012012 115.5613369 -6.89287974 113.95415424 -3 110 C-1.84066872 107.68133744 -1.86563038 106.33060854 -1.84851074 103.7487793 C-1.84016708 102.85701996 -1.83182343 101.96526062 -1.82322693 101.04647827 C-1.81904251 100.06563263 -1.81485809 99.08478699 -1.81054688 98.07421875 C-1.80225357 97.0432608 -1.79396027 96.01230286 -1.78541565 94.95010376 C-1.76798898 92.70638583 -1.75282937 90.46264943 -1.73963928 88.21890259 C-1.71866318 84.6728228 -1.69163674 81.1268359 -1.66296387 77.58081055 C-1.603192 70.0539091 -1.55106311 62.52696491 -1.5 55 C-1.44085019 46.2810135 -1.37862108 37.56207292 -1.30812073 28.84317017 C-1.28146704 25.34101828 -1.26070029 21.83886198 -1.2401123 18.33666992 C-1.22351477 16.19970477 -1.20664341 14.06274172 -1.18945312 11.92578125 C-1.18526871 10.94493561 -1.18108429 9.96408997 -1.17677307 8.95352173 C-1.16842941 8.06176239 -1.16008575 7.17000305 -1.15148926 6.2512207 C-1.14633553 5.47398148 -1.14118179 4.69674225 -1.13587189 3.89595032 C-1 2 -1 2 0 0 Z " fill="#0FFAE2" transform="translate(348,381)"/>
<path d="M0 0 C1.02075623 0.00007553 2.04151245 0.00015106 3.09320068 0.00022888 C4.18811829 0.00539017 5.28303589 0.01055145 6.41113281 0.01586914 C8.10064056 0.01799156 8.10064056 0.01799156 9.82427979 0.02015686 C13.42096617 0.0257534 17.01759025 0.03830529 20.61425781 0.05102539 C23.053059 0.05604084 25.49186116 0.06060367 27.93066406 0.06469727 C33.90854989 0.07572169 39.8863994 0.09245641 45.86425781 0.11352539 C47.26726914 2.91954804 46.99401202 5.26370906 46.99707031 8.39868164 C46.99835938 9.65100586 46.99964844 10.90333008 47.00097656 12.19360352 C46.99710937 13.50780273 46.99324219 14.82200195 46.98925781 16.17602539 C46.993125 17.4940918 46.99699219 18.8121582 47.00097656 20.17016602 C46.9996875 21.42120117 46.99839844 22.67223633 46.99707031 23.96118164 C46.99594238 25.11626221 46.99481445 26.27134277 46.99365234 27.46142578 C46.86425781 30.11352539 46.86425781 30.11352539 45.86425781 31.11352539 C43.44143364 31.24870769 41.04300219 31.32398933 38.61816406 31.35961914 C37.12662166 31.39255404 35.63508534 31.42576575 34.14355469 31.45922852 C31.78218745 31.50669689 29.42084556 31.55112355 27.05932617 31.59033203 C24.78700784 31.62996411 22.51520207 31.68152716 20.24316406 31.73461914 C19.18060143 31.74724037 19.18060143 31.74724037 18.09657288 31.76011658 C14.03101229 31.75272274 14.03101229 31.75272274 10.86425781 34.11352539 C10.69077128 36.54555658 10.63481309 38.87341017 10.66113281 41.30493164 C10.65576507 42.81022882 10.64852598 44.31552021 10.63964844 45.82080078 C10.63682861 46.61310089 10.63400879 47.405401 10.63110352 48.22171021 C10.43219333 77.20169908 4.57279362 103.33103782 -14.13574219 126.11352539 C-14.79574219 127.10352539 -15.45574219 128.09352539 -16.13574219 129.11352539 C-18.76074219 129.30102539 -18.76074219 129.30102539 -21.13574219 129.11352539 C-21.13574219 131.42352539 -21.13574219 133.73352539 -21.13574219 136.11352539 C-20.01619141 135.9859082 -20.01619141 135.9859082 -18.87402344 135.85571289 C-16.13574219 136.11352539 -16.13574219 136.11352539 -14.17871094 137.80883789 C4.64694115 162.46053389 10.25405352 187.46133973 10.53735352 217.86279297 C10.54679489 218.59072556 10.55623627 219.31865814 10.56596375 220.06864929 C10.58952094 222.07326673 10.59959741 224.07802934 10.60888672 226.08276367 C10.54539358 229.22482097 10.54539358 229.22482097 12.86425781 231.11352539 C15.35670393 231.34656431 17.74684353 231.46278008 20.24316406 231.49243164 C21.33406593 231.51792336 21.33406593 231.51792336 22.44700623 231.54393005 C24.77350157 231.59713233 27.09997839 231.6373937 29.42675781 231.67602539 C31.75701688 231.71990207 34.08713494 231.76655648 36.41722107 231.8188324 C37.86833648 231.85087462 39.31957681 231.87773798 40.77088928 231.89906311 C45.7525259 232.00179348 45.7525259 232.00179348 46.86425781 233.11352539 C47.11841331 237.75367864 47.04948579 242.40473845 47.05175781 247.05102539 C47.06400391 248.36522461 47.07625 249.67942383 47.08886719 251.03344727 C47.09080078 252.28577148 47.09273438 253.5380957 47.09472656 254.82836914 C47.09883545 255.98457764 47.10294434 257.14078613 47.10717773 258.33203125 C46.86425781 261.11352539 46.86425781 261.11352539 44.86425781 263.11352539 C42.74815369 263.38768005 42.74815369 263.38768005 40.09838867 263.41992188 C38.61060158 263.44390297 38.61060158 263.44390297 37.09275818 263.46836853 C35.47724815 263.47641258 35.47724815 263.47641258 33.82910156 263.48461914 C32.72127823 263.49364761 31.6134549 263.50267609 30.47206116 263.51197815 C28.12080599 263.52651279 25.76951009 263.53537532 23.41821289 263.5390625 C19.84027446 263.55089798 16.26409443 263.60000294 12.68652344 263.65063477 C10.40072455 263.66010585 8.11491507 263.6673376 5.82910156 263.67211914 C4.7662645 263.69165146 3.70342743 263.71118378 2.60838318 263.73130798 C-4.38693799 263.68937615 -9.53670635 262.45666803 -15.13574219 258.11352539 C-19.28555704 253.58344721 -21.2530494 249.38090243 -21.27758789 243.25341797 C-21.28462234 242.26420853 -21.2916568 241.27499908 -21.29890442 240.2558136 C-21.3030687 239.1840538 -21.30723297 238.11229401 -21.31152344 237.00805664 C-21.33475327 234.72093838 -21.3588718 232.43382901 -21.38378906 230.14672852 C-21.41864329 226.55528085 -21.44809811 222.96415338 -21.46166992 219.37255859 C-21.53682732 202.72577198 -21.77340544 186.84505046 -29.82324219 171.80102539 C-30.16427979 171.14714844 -30.50531738 170.49327148 -30.85668945 169.81958008 C-35.25662176 161.6766602 -40.47193219 153.01524964 -49.52636719 149.67602539 C-54.0430396 148.70237146 -58.58518603 148.51623786 -63.19433594 148.38696289 C-66.13574219 148.11352539 -66.13574219 148.11352539 -68.13574219 146.11352539 C-68.36279297 143.31616211 -68.36279297 143.31616211 -68.33105469 139.79321289 C-68.32460937 138.53637695 -68.31816406 137.27954102 -68.31152344 135.98461914 C-68.29476562 134.6659082 -68.27800781 133.34719727 -68.26074219 131.98852539 C-68.25071201 130.64868818 -68.24158623 129.30884387 -68.23339844 127.96899414 C-68.20976294 124.68365966 -68.17681453 121.39868074 -68.13574219 118.11352539 C-65.42422511 116.75776685 -63.10079881 116.92496046 -60.07324219 116.80102539 C-51.35487661 116.15700059 -44.87341522 113.86530921 -38.88964844 107.34008789 C-26.33449665 91.40147648 -21.84342031 73.76790122 -21.86230469 53.81274414 C-21.84203791 51.51391095 -21.8211876 49.21508284 -21.79980469 46.91625977 C-21.77714004 43.34386836 -21.76069445 39.77167902 -21.75488281 36.19921875 C-21.74535961 32.71587038 -21.7116172 29.23339611 -21.67480469 25.75024414 C-21.67985016 24.68658127 -21.68489563 23.6229184 -21.69009399 22.52702332 C-21.59293162 15.18801817 -20.54239359 10.45364063 -15.13574219 5.15258789 C-14.47574219 4.68594727 -13.81574219 4.21930664 -13.13574219 3.73852539 C-12.47574219 3.25641602 -11.81574219 2.77430664 -11.13574219 2.27758789 C-7.51115531 0.16796506 -4.13913254 -0.01024538 0 0 Z " fill="#0FFBE4" transform="translate(214.1357421875,380.886474609375)"/>
</svg>
